# xmcd
# 
# Track frame offsets:
#     175
#     4285
#     17075
#     23985
#     27267
#     36537
#     43745
#     56320
#     63222
#     71690
#     80272
#     98257
#     108727
#     112247
#     124927
#     132920
#     141702
#     151302
#     168777
#     173802
#     185292
# 
# Disc length: 2634
# 
# Revision: 1
# Processed by: cddbd v1.5.2PL0 Copyright (c) Steve Scherf et al.
# Submitted via: fre:ac v1.0.31
# 
DISCID=200a4815
DTITLE=Johnny Cash - The Holy Land
DYEAR=1999
DGENRE=Country Gospel
TTITLE0=Prologue
TTITLE1=Land Of Israel
TTITLE2=A Mother's Love
TTITLE3=This Is Nazareth
TTITLE4=Nazarene
TTITLE5=Town Of Cana
TTITLE6=He Turned The Water Into Wine
TTITLE7=My Wife June At Sea Of Galilee
TTITLE8=Beautiful Words
TTITLE9=Our Guide Jacob At Mount Tabor
TTITLE10=The Ten Commandments
TTITLE11=Daddy Sang Bass
TTITLE12=At The Wailing Wall
TTITLE13=Come To The Wailing Wall
TTITLE14=In Bethlehem
TTITLE15=In Garden Of Gethsemane
TTITLE16=The Fourth Man
TTITLE17=On The Via Dolorosa
TTITLE18=Church Of The Holy Sepulchre
TTITLE19=At Calvary
TTITLE20=God Is Not Dead
EXTD=(c)1999 Sony Music Entertainment/Harmony Records USA\nupc 088561178628
EXTT0=
EXTT1=
EXTT2=
EXTT3=
EXTT4=
EXTT5=
EXTT6=
EXTT7=
EXTT8=
EXTT9=
EXTT10=
EXTT11=
EXTT12=
EXTT13=
EXTT14=
EXTT15=
EXTT16=
EXTT17=
EXTT18=
EXTT19=
EXTT20=
PLAYORDER=
